<svg width="21" height="17" viewBox="0 0 21 17" fill="none" xmlns="http://www.w3.org/2000/svg">
<path d="M10.3 8.29999C9.40001 8.69999 8.50001 8.99999 7.70001 9.29999V16.4C8.50001 16.2 9.40001 15.9 10.3 15.4C17 12.3 20.2 16.2 20.2 16.2V8.99999C20.2 8.99999 17 5.09999 10.3 8.29999Z" fill="#3AAA35"/>
<path d="M10.3 1.2C9.40001 1.7 8.50001 2 7.70001 2.2V9.3C8.50001 9.1 9.40001 8.8 10.3 8.3C17 5.1 20.2 9 20.2 9V2C20.2 2 17 -1.9 10.3 1.2Z" fill="#E30613"/>
<path d="M0 1.70001V8.70001V15.7C0 15.7 2.7 17.7 7.7 16.3V9.30001V2.30001C2.7 3.70001 0 1.70001 0 1.70001Z" fill="white"/>
</svg>
