<?xml version="1.0" encoding="utf-8"?>
<!-- Generator: Adobe Illustrator 23.0.0, SVG Export Plug-In . SVG Version: 6.00 Build 0)  -->
<svg version="1.1" id="Calque_1" xmlns="http://www.w3.org/2000/svg" xmlns:xlink="http://www.w3.org/1999/xlink" x="0px" y="0px"
	 viewBox="0 0 145 100" style="enable-background:new 0 0 145 100;" xml:space="preserve">
<style type="text/css">
	.st0{fill:#41A655;}
	.st1{fill:#0B8E86;}
	.st2{fill:#68AE45;}
	.st3{fill:#6CB43F;}
	.st4{fill:#76B949;}
	.st5{fill:#92C466;}
	.st6{fill:#3CA347;}
	.st7{fill:#04823A;}
	.st8{fill:#0A8E86;}
	.st9{fill:#8CC054;}
	.st10{fill:#06A049;}
	.st11{fill:#035D74;}
	.st12{fill:#04788F;}
	.st13{fill:#016D83;}
	.st14{fill:#34958D;}
	.st15{fill:#307F7C;}
	.st16{fill:#016659;}
	.st17{fill:#019544;}
	.st18{fill:#037288;}
	.st19{fill:#027086;}
	.st20{fill:#02687F;}
	.st21{fill:none;stroke:#04687E;stroke-width:0.0828;stroke-miterlimit:10;}
	.st22{fill:#020203;}
</style>
<path class="st0" d="M51.24,43.8l-21.36-8.6l16.35-15.7"/>
<path class="st1" d="M29.58,57.6l22.76,9.5l-1.1-23.3"/>
<path class="st2" d="M19.75,18.1l26.47,1.4L29.88,35.2L19.75,18.1z"/>
<path class="st3" d="M1,47.2l9.33-5.7L3.21,24.9"/>
<path class="st4" d="M3.21,24.9l7.12,16.6L19.75,18"/>
<path class="st5" d="M3.21,24.9L19.75,18l-3.31-9.6"/>
<path class="st6" d="M10.33,41.5l9.43-23.4l10.23,17.1"/>
<path class="st7" d="M1,47.2l9.33-5.8l0.9,23.6"/>
<path class="st0" d="M10.33,41.5l19.56-6.3l-0.3,22.4"/>
<path class="st8" d="M10.33,41.5l0.9,23.5l18.35-7.4"/>
<path class="st9" d="M34.49,2L19.75,18.1l26.47,1.4L34.49,2z"/>
<path class="st4" d="M34.49,2L16.44,8.4l3.31,9.7L34.49,2z"/>
<path class="st10" d="M29.58,57.6l0.3-22.4l21.36,8.6"/>
<path class="st11" d="M47.83,76.8l-16.35-2.7L52.34,67l15.34-2.6L47.83,76.8z"/>
<path class="st12" d="M31.49,74.1l-1.91-16.5l22.76,9.5"/>
<path class="st13" d="M23.76,75l24.07,1.8l-16.35-2.7L11.23,65L23.76,75z"/>
<path class="st14" d="M51.24,43.8l16.35,7.8l0.1-22.3"/>
<path class="st15" d="M52.34,67.1l15.24-15.5l-16.35-7.8"/>
<path class="st16" d="M76.11,41.6L70.4,19l-2.71,10.3"/>
<path class="st10" d="M51.24,43.8l16.45-14.5l-21.46-9.8"/>
<path class="st4" d="M57.36,10.2l-5.31-6.3L34.49,2L57.36,10.2z"/>
<path class="st4" d="M46.23,19.5l11.13-9.3L34.49,2L46.23,19.5z"/>
<path class="st3" d="M46.23,19.5l11.13-9.3l10.33,19.1"/>
<path class="st17" d="M52.04,3.9l5.31,6.3l10.33,19.1L70.4,19"/>
<path class="st18" d="M11.23,65l18.35-7.4l1.91,16.5"/>
<path class="st19" d="M52.24,67l15.44-2.6l-0.2-12.9"/>
<path class="st7" d="M67.49,51.5l8.62-9.9l-8.42-12.3"/>
<path class="st20" d="M67.39,51.5l0.3,12.9l8.42-22.8"/>
<path class="st21" d="M67.69,64.3v-2.8"/>
<path class="st22" d="M88.35,59.9v5c-1.2,0.8-2.51,1.2-4.21,1.2c-3.21,0-6.02-2.4-6.02-5.9s2.81-5.9,6.02-5.9
	c1.7,0,2.91,0.5,4.01,1.2l-0.9,1.6c-0.9-0.6-2.01-0.9-3.11-0.9c-2.61,0-4.01,1.8-4.01,4.1c0,2.4,1.81,4.1,4.01,4.1
	c1,0,1.6-0.2,2.31-0.5v-2.2h-2.61V60h4.51V59.9z"/>
<path class="st22" d="M96.67,65.9l-2.51-4.1c-0.2,0-0.4,0-0.6,0c-0.4,0-0.8,0-1.1,0v4.1h-1.91V54.7c0.9-0.1,1.81-0.2,3.01-0.2
	c3.21,0,4.61,1.6,4.61,3.6c0,1.5-0.8,2.7-2.21,3.3l3.01,4.6h-2.31V65.9z M93.76,56.2c-0.5,0-0.9,0-1.3,0.1v3.9
	c0.4,0,0.7,0.1,1.1,0.1c1.7,0,2.51-0.8,2.51-2.1C96.07,57,95.27,56.2,93.76,56.2z"/>
<path class="st22" d="M100.28,65.9V54.5h6.92v1.8h-5.01v3h4.51V61h-4.41v3.1h5.01v1.8H100.28z"/>
<path class="st22" d="M109.51,65.9V54.5h6.92v1.8h-5.01v3h4.51V61h-4.51v3.1h5.01v1.8H109.51z"/>
<path class="st22" d="M127.86,66.1l-7.12-7.5v7.3h-1.9V54.4l0.3-0.1l7.02,7.4v-7.2h1.9V66L127.86,66.1z"/>
<path class="st22" d="M84.23,82c-3.61,0-6.12-2.5-6.12-5.9s2.61-5.9,6.12-5.9c1.4,0,2.71,0.5,3.71,1l-0.8,1.8
	c-0.9-0.5-2.01-0.9-3.01-0.9c-2.51,0-4.01,1.7-4.01,4.1c0,2.4,1.6,4,4.11,4c1,0,2.21-0.4,3.11-0.9l0.6,1.6
	C86.94,81.5,85.64,82,84.23,82z"/>
<path class="st22" d="M89.65,81.8V70.5h1.91v9.6h5.01v1.8h-6.92V81.8z"/>
<path class="st22" d="M98.17,81.8V70.5h1.91v11.4h-1.91V81.8z"/>
<path class="st22" d="M112.11,81.8l-0.2-6.8l-3.61,5.4h-0.2l-3.61-5.4l-0.1,6.8h-1.9l0.5-11.5h0.3l5.01,7.5l4.91-7.5h0.3l0.5,11.5
	H112.11z"/>
<path class="st22" d="M123.75,81.8l-1.1-2.6h-4.51l-1.1,2.6h-2.01l5.21-11.5h0.3l5.21,11.5H123.75z M120.44,73.9l-1.6,3.8h3.21
	L120.44,73.9z"/>
<path class="st22" d="M130.77,72.2v9.6h-1.91v-9.6h-3.61v-1.8h9.13v1.8H130.77z"/>
<path class="st22" d="M136.08,81.8V70.5H143v1.8h-5.01v3h4.51V77h-4.51v3.1H143v1.8h-6.92V81.8z"/>
<path class="st22" d="M80.42,88.2v3.3h4.41v1.7h-4.41v4.6h-1.91V86.4h6.92v1.8H80.42z"/>
<path class="st22" d="M91.45,98c-2.81,0-4.51-1.6-4.51-4.5v-7h1.91v6.9c0,2,1,2.9,2.61,2.9s2.61-1,2.61-2.9v-6.9h1.91v7
	C96.07,96.3,94.26,98,91.45,98z"/>
<path class="st22" d="M107.5,98l-7.22-7.5v7.3h-1.91V86.3l0.3-0.1l7.02,7.4v-7.2h1.9v11.5L107.5,98z"/>
<path class="st22" d="M113.42,97.9c-1.2,0-2.11-0.1-3.31-0.2V86.5c1.1-0.1,2.01-0.2,3.21-0.2c4.51,0,6.72,2.6,6.72,5.7
	C120.04,95.2,117.93,97.9,113.42,97.9z M113.52,88c-0.6,0-1.1,0-1.5,0.1V96c0.5,0.1,0.9,0.1,1.6,0.1c2.91,0,4.21-1.7,4.21-4.2
	C117.93,89.6,116.43,88,113.52,88z"/>
</svg>
