<?xml version="1.0" encoding="utf-8"?>
<!-- Generator: Adobe Illustrator 25.2.3, SVG Export Plug-In . SVG Version: 6.00 Build 0)  -->
<svg version="1.1" id="Calque_1" xmlns="http://www.w3.org/2000/svg" xmlns:xlink="http://www.w3.org/1999/xlink" x="0px" y="0px"
	 viewBox="0 0 160 55" style="enable-background:new 0 0 160 55;" xml:space="preserve">
<style type="text/css">
	.st0{fill:none;stroke:#1E8F86;}
	.st1{fill:#1E8F86;}
</style>
<line class="st0" x1="0.6" y1="1.61" x2="0.6" y2="53.61"/>
<path class="st1" d="M20.61,13.65h-3.6l-0.68,2.05h-2.18l3.71-9.95h1.9l3.73,9.95H21.3L20.61,13.65z M17.57,11.99h2.49l-1.25-3.73
	L17.57,11.99z M31.82,5.74v6.56c0,1.09-0.34,1.95-1.03,2.58c-0.68,0.63-1.61,0.95-2.79,0.95c-1.16,0-2.09-0.31-2.77-0.92
	c-0.68-0.62-1.03-1.46-1.05-2.54V5.74h2.05v6.57c0,0.65,0.15,1.13,0.46,1.43c0.32,0.3,0.75,0.44,1.3,0.44
	c1.15,0,1.74-0.61,1.76-1.82V5.74H31.82z M41,7.41h-3.05v8.29H35.9V7.41h-3.01V5.74H41V7.41z M50.16,10.95
	c0,0.98-0.17,1.84-0.52,2.58c-0.35,0.74-0.84,1.31-1.49,1.71c-0.64,0.4-1.38,0.6-2.21,0.6c-0.82,0-1.56-0.2-2.21-0.59
	c-0.65-0.4-1.15-0.96-1.5-1.7c-0.35-0.74-0.54-1.59-0.54-2.54v-0.49c0-0.98,0.18-1.84,0.53-2.58c0.35-0.75,0.85-1.32,1.5-1.72
	c0.65-0.4,1.38-0.6,2.21-0.6c0.83,0,1.57,0.2,2.21,0.6c0.65,0.4,1.15,0.97,1.5,1.72c0.35,0.74,0.53,1.6,0.53,2.58V10.95z
	 M48.08,10.5c0-1.04-0.19-1.84-0.56-2.38c-0.37-0.54-0.91-0.81-1.6-0.81c-0.69,0-1.22,0.27-1.59,0.81
	c-0.37,0.53-0.56,1.32-0.57,2.35v0.49c0,1.02,0.19,1.8,0.56,2.37c0.37,0.56,0.91,0.84,1.61,0.84c0.69,0,1.22-0.27,1.59-0.81
	c0.37-0.54,0.56-1.33,0.56-2.37V10.5z M55.33,12.05H53.7v3.64h-2.05V5.74h3.7c1.18,0,2.08,0.26,2.72,0.79s0.96,1.26,0.96,2.22
	c0,0.68-0.15,1.25-0.44,1.7c-0.29,0.45-0.74,0.81-1.33,1.08l2.15,4.07v0.1h-2.2L55.33,12.05z M53.7,10.39h1.65
	c0.51,0,0.91-0.13,1.2-0.39c0.28-0.26,0.42-0.63,0.42-1.09c0-0.47-0.13-0.84-0.4-1.11c-0.26-0.27-0.67-0.4-1.22-0.4H53.7V10.39z
	 M62.77,15.7h-2.05V5.74h2.05V15.7z M71.96,7.41h-3.05v8.29h-2.05V7.41h-3.01V5.74h8.11V7.41z M79.13,11.38h-3.94v2.67h4.62v1.65
	h-6.67V5.74h6.66v1.66h-4.61v2.37h3.94V11.38z M76.99,3.06h2.15l-1.89,2.12h-1.61L76.99,3.06z M92.59,15.7h-2.05l-3.99-6.55v6.55
	H84.5V5.74h2.05l4,6.56V5.74h2.04V15.7z M100.13,13.65h-3.6l-0.68,2.05h-2.18l3.71-9.95h1.9L103,15.7h-2.18L100.13,13.65z
	 M97.08,11.99h2.49l-1.25-3.73L97.08,11.99z M110.6,7.41h-3.05v8.29h-2.05V7.41h-3.01V5.74h8.11V7.41z M113.96,15.7h-2.05V5.74h2.05
	V15.7z M124.04,10.95c0,0.98-0.17,1.84-0.52,2.58c-0.35,0.74-0.84,1.31-1.49,1.71c-0.64,0.4-1.38,0.6-2.21,0.6
	c-0.83,0-1.56-0.2-2.21-0.59s-1.15-0.96-1.5-1.7c-0.35-0.74-0.54-1.59-0.54-2.54v-0.49c0-0.98,0.17-1.84,0.53-2.58
	c0.36-0.75,0.86-1.32,1.5-1.72c0.65-0.4,1.39-0.6,2.21-0.6c0.83,0,1.57,0.2,2.21,0.6c0.65,0.4,1.15,0.97,1.5,1.72
	c0.36,0.74,0.53,1.6,0.53,2.58V10.95z M121.96,10.5c0-1.04-0.19-1.84-0.56-2.38c-0.37-0.54-0.91-0.81-1.6-0.81
	c-0.69,0-1.22,0.27-1.59,0.81c-0.37,0.53-0.56,1.32-0.57,2.35v0.49c0,1.02,0.19,1.8,0.56,2.37c0.37,0.56,0.91,0.84,1.61,0.84
	c0.69,0,1.22-0.27,1.59-0.81c0.37-0.54,0.56-1.33,0.56-2.37V10.5z M133.62,15.7h-2.05l-3.99-6.55v6.55h-2.05V5.74h2.05l4,6.56V5.74
	h2.04V15.7z M141.16,13.65h-3.6l-0.68,2.05h-2.18l3.71-9.95h1.9l3.73,9.95h-2.18L141.16,13.65z M138.11,11.99h2.49l-1.25-3.73
	L138.11,11.99z M147.01,14.05h4.36v1.65h-6.4V5.74h2.05V14.05z M158.53,11.38h-3.94v2.67h4.62v1.65h-6.67V5.74h6.66v1.66h-4.61v2.37
	h3.94V11.38z M14.99,31.7v-9.95h3.06c0.88,0,1.66,0.2,2.35,0.59c0.69,0.39,1.23,0.95,1.62,1.68c0.39,0.72,0.58,1.55,0.58,2.47v0.46
	c0,0.93-0.19,1.75-0.57,2.47c-0.38,0.72-0.91,1.28-1.61,1.67c-0.69,0.4-1.47,0.6-2.34,0.6H14.99z M17.04,23.41v6.64h0.99
	c0.8,0,1.41-0.26,1.84-0.79c0.42-0.52,0.64-1.27,0.65-2.25v-0.53c0-1.01-0.21-1.78-0.63-2.3c-0.42-0.52-1.03-0.79-1.84-0.79H17.04z
	 M30.08,27.38h-3.94v2.67h4.62v1.65H24.1v-9.95h6.66v1.66h-4.61v2.37h3.94V27.38z M27.95,19.06h2.15l-1.89,2.12H26.6L27.95,19.06z
	 M37.13,29.09c0-0.39-0.14-0.68-0.41-0.89c-0.27-0.21-0.77-0.43-1.48-0.66c-0.71-0.23-1.27-0.46-1.69-0.68
	c-1.13-0.61-1.7-1.43-1.7-2.47c0-0.54,0.15-1.02,0.45-1.44c0.31-0.42,0.74-0.75,1.31-0.99c0.57-0.24,1.21-0.36,1.91-0.36
	c0.71,0,1.34,0.13,1.9,0.39c0.56,0.26,0.99,0.62,1.29,1.09c0.31,0.47,0.46,1,0.46,1.6h-2.05c0-0.46-0.14-0.81-0.43-1.06
	c-0.29-0.26-0.69-0.38-1.21-0.38c-0.5,0-0.89,0.11-1.17,0.32c-0.28,0.21-0.42,0.49-0.42,0.83c0,0.32,0.16,0.59,0.49,0.81
	c0.33,0.22,0.81,0.42,1.44,0.62c1.17,0.35,2.02,0.79,2.55,1.31c0.53,0.52,0.8,1.17,0.8,1.94c0,0.86-0.33,1.54-0.98,2.03
	c-0.65,0.49-1.53,0.73-2.63,0.73c-0.77,0-1.46-0.14-2.09-0.42c-0.63-0.28-1.11-0.67-1.44-1.16c-0.33-0.49-0.49-1.05-0.49-1.7h2.06
	c0,1.1,0.66,1.65,1.97,1.65c0.49,0,0.87-0.1,1.14-0.29C37,29.72,37.13,29.44,37.13,29.09z M42.77,31.7h-2.05v-9.95h2.05V31.7z
	 M52.55,30.44c-0.37,0.44-0.89,0.79-1.57,1.03c-0.68,0.24-1.42,0.36-2.24,0.36c-0.86,0-1.62-0.19-2.27-0.56
	c-0.65-0.38-1.15-0.93-1.5-1.64c-0.35-0.72-0.53-1.56-0.54-2.52v-0.68c0-0.99,0.17-1.85,0.5-2.58c0.34-0.73,0.82-1.29,1.45-1.67
	c0.63-0.39,1.37-0.58,2.22-0.58c1.18,0,2.1,0.28,2.77,0.85c0.66,0.56,1.06,1.38,1.18,2.45h-2c-0.09-0.57-0.29-0.99-0.61-1.25
	c-0.31-0.26-0.74-0.4-1.29-0.4c-0.7,0-1.23,0.26-1.59,0.79c-0.36,0.52-0.55,1.3-0.55,2.34v0.64c0,1.04,0.2,1.83,0.6,2.37
	c0.4,0.53,0.98,0.8,1.74,0.8c0.77,0,1.32-0.16,1.65-0.49v-1.72h-1.87v-1.51h3.92V30.44z M62.31,31.7h-2.05l-3.99-6.55v6.55h-2.05
	v-9.95h2.05l4,6.56v-6.56h2.04V31.7z M70.09,27.38h-3.94v2.67h4.62v1.65H64.1v-9.95h6.66v1.66h-4.61v2.37h3.94V27.38z M67.95,19.06
	h2.15l-1.89,2.12H66.6L67.95,19.06z M77.96,27.38h-3.94v2.67h4.62v1.65h-6.67v-9.95h6.66v1.66h-4.61v2.37h3.94V27.38z M17.67,37.74
	l2.56,7.22l2.54-7.22h2.69v9.95h-2.06v-2.72l0.21-4.7l-2.69,7.42h-1.41l-2.68-7.41l0.21,4.69v2.72h-2.05v-9.95H17.67z M33,45.65
	h-3.6l-0.68,2.05h-2.18l3.71-9.95h1.9l3.73,9.95h-2.18L33,45.65z M29.96,43.99h2.49l-1.25-3.73L29.96,43.99z M36.8,47.7v-9.95h3.06
	c0.88,0,1.66,0.2,2.35,0.59c0.69,0.39,1.23,0.95,1.62,1.68c0.39,0.72,0.58,1.55,0.58,2.47v0.46c0,0.93-0.19,1.75-0.57,2.47
	c-0.38,0.72-0.91,1.28-1.61,1.67c-0.69,0.4-1.47,0.6-2.35,0.6H36.8z M38.85,39.41v6.64h0.99c0.8,0,1.41-0.26,1.84-0.79
	c0.42-0.52,0.64-1.27,0.65-2.25v-0.53c0-1.01-0.21-1.78-0.63-2.3c-0.42-0.52-1.03-0.79-1.84-0.79H38.85z M51.37,45.65h-3.6
	l-0.68,2.05h-2.18l3.71-9.95h1.9l3.73,9.95h-2.18L51.37,45.65z M48.33,43.99h2.49l-1.25-3.73L48.33,43.99z M62.9,46.44
	c-0.37,0.44-0.89,0.79-1.57,1.03c-0.67,0.24-1.42,0.36-2.24,0.36c-0.86,0-1.62-0.19-2.27-0.56c-0.65-0.38-1.15-0.93-1.5-1.64
	c-0.35-0.72-0.53-1.56-0.54-2.52v-0.68c0-0.99,0.17-1.85,0.5-2.58c0.34-0.73,0.82-1.29,1.45-1.67c0.63-0.39,1.37-0.58,2.22-0.58
	c1.18,0,2.1,0.28,2.77,0.85c0.67,0.56,1.06,1.38,1.18,2.45h-2c-0.09-0.57-0.29-0.99-0.61-1.25c-0.31-0.26-0.74-0.4-1.29-0.4
	c-0.7,0-1.23,0.26-1.59,0.79c-0.36,0.52-0.55,1.3-0.55,2.34v0.64c0,1.04,0.2,1.83,0.6,2.37c0.4,0.53,0.98,0.8,1.74,0.8
	c0.77,0,1.32-0.16,1.65-0.49v-1.72h-1.87v-1.51h3.92V46.44z M70.18,45.65h-3.6l-0.68,2.05h-2.18l3.7-9.95h1.9l3.73,9.95h-2.18
	L70.18,45.65z M67.14,43.99h2.49l-1.25-3.73L67.14,43.99z M79.15,45.09c0-0.39-0.14-0.68-0.41-0.89c-0.27-0.21-0.77-0.43-1.48-0.66
	c-0.71-0.23-1.27-0.46-1.69-0.68c-1.13-0.61-1.7-1.43-1.7-2.47c0-0.54,0.15-1.02,0.45-1.44c0.3-0.42,0.74-0.75,1.3-0.99
	c0.57-0.24,1.21-0.36,1.91-0.36c0.71,0,1.35,0.13,1.9,0.39c0.56,0.26,0.99,0.62,1.29,1.09c0.31,0.47,0.47,1,0.47,1.6h-2.05
	c0-0.46-0.14-0.81-0.43-1.06c-0.29-0.26-0.69-0.38-1.21-0.38c-0.5,0-0.89,0.11-1.17,0.32c-0.28,0.21-0.42,0.49-0.42,0.83
	c0,0.32,0.16,0.59,0.49,0.81c0.33,0.22,0.81,0.42,1.44,0.62c1.17,0.35,2.02,0.79,2.55,1.31s0.8,1.17,0.8,1.94
	c0,0.86-0.33,1.54-0.98,2.03c-0.65,0.49-1.53,0.73-2.63,0.73c-0.76,0-1.46-0.14-2.09-0.42c-0.63-0.28-1.11-0.67-1.44-1.16
	c-0.33-0.49-0.49-1.05-0.49-1.7h2.06c0,1.1,0.66,1.65,1.97,1.65c0.49,0,0.87-0.1,1.14-0.29C79.01,45.72,79.15,45.44,79.15,45.09z
	 M90.41,44.38c-0.08,1.07-0.47,1.91-1.19,2.53c-0.71,0.62-1.65,0.92-2.82,0.92c-1.28,0-2.28-0.43-3.01-1.29
	c-0.73-0.86-1.09-2.04-1.09-3.54V42.4c0-0.96,0.17-1.8,0.51-2.53c0.34-0.73,0.82-1.29,1.44-1.67c0.63-0.39,1.36-0.59,2.19-0.59
	c1.15,0,2.07,0.31,2.78,0.92c0.7,0.62,1.11,1.48,1.22,2.59h-2.05c-0.05-0.64-0.23-1.11-0.54-1.39c-0.3-0.29-0.77-0.44-1.4-0.44
	c-0.68,0-1.2,0.25-1.54,0.74c-0.34,0.49-0.51,1.25-0.52,2.28v0.75c0,1.08,0.16,1.86,0.49,2.36c0.33,0.5,0.84,0.75,1.54,0.75
	c0.63,0,1.1-0.14,1.41-0.43c0.31-0.29,0.49-0.74,0.54-1.35H90.41z M97.38,45.65h-3.6L93.1,47.7h-2.18l3.71-9.95h1.9l3.72,9.95h-2.18
	L97.38,45.65z M94.34,43.99h2.49l-1.25-3.73L94.34,43.99z M104.86,44.05h-1.63v3.64h-2.05v-9.95h3.7c1.18,0,2.08,0.26,2.72,0.79
	s0.96,1.26,0.96,2.22c0,0.68-0.15,1.25-0.44,1.7c-0.29,0.45-0.74,0.81-1.33,1.08l2.15,4.07v0.1h-2.2L104.86,44.05z M103.23,42.39
	h1.65c0.51,0,0.91-0.13,1.2-0.39c0.28-0.26,0.42-0.63,0.42-1.09c0-0.47-0.13-0.84-0.4-1.11c-0.26-0.27-0.67-0.4-1.22-0.4h-1.65
	V42.39z"/>
</svg>
