<?xml version="1.0" encoding="utf-8"?>
<!-- Generator: Adobe Illustrator 23.0.0, SVG Export Plug-In . SVG Version: 6.00 Build 0)  -->
<svg version="1.1" id="Calque_1" xmlns="http://www.w3.org/2000/svg" xmlns:xlink="http://www.w3.org/1999/xlink" x="0px" y="0px"
	 viewBox="0 0 145 100" style="enable-background:new 0 0 145 100;" xml:space="preserve">
<style type="text/css">
	.st0{fill:#41A655;}
	.st1{fill:#0B8E86;}
	.st2{fill:#68AE45;}
	.st3{fill:#6CB43F;}
	.st4{fill:#76B949;}
	.st5{fill:#92C466;}
	.st6{fill:#3CA347;}
	.st7{fill:#04823A;}
	.st8{fill:#0A8E86;}
	.st9{fill:#8CC054;}
	.st10{fill:#06A049;}
	.st11{fill:#035D74;}
	.st12{fill:#04788F;}
	.st13{fill:#016D83;}
	.st14{fill:#34958D;}
	.st15{fill:#307F7C;}
	.st16{fill:#016659;}
	.st17{fill:#019544;}
	.st18{fill:#037288;}
	.st19{fill:#027086;}
	.st20{fill:#02687F;}
	.st21{fill:none;stroke:#04687E;stroke-width:8.280000e-02;stroke-miterlimit:10;}
	.st22{fill:#FFFFFF;}
</style>
<path class="st0" d="M51.2,43.8l-21.4-8.6l16.4-15.7"/>
<path class="st1" d="M29.6,57.6l22.8,9.5l-1.1-23.3"/>
<path class="st2" d="M19.8,18.1l26.5,1.4L29.9,35.2L19.8,18.1z"/>
<path class="st3" d="M1,47.2l9.3-5.7L3.2,24.9"/>
<path class="st4" d="M3.2,24.9l7.1,16.6L19.8,18"/>
<path class="st5" d="M3.2,24.9L19.8,18l-3.3-9.6"/>
<path class="st6" d="M10.3,41.5l9.4-23.4L30,35.2"/>
<path class="st7" d="M1,47.2l9.3-5.8L11.2,65"/>
<path class="st0" d="M10.3,41.5l19.6-6.3l-0.3,22.4"/>
<path class="st8" d="M10.3,41.5L11.2,65l18.4-7.4"/>
<path class="st9" d="M34.5,2L19.8,18.1l26.5,1.4L34.5,2z"/>
<path class="st4" d="M34.5,2L16.4,8.4l3.3,9.7L34.5,2z"/>
<path class="st10" d="M29.6,57.6l0.3-22.4l21.4,8.6"/>
<path class="st11" d="M47.8,76.8l-16.4-2.7L52.3,67l15.3-2.6L47.8,76.8z"/>
<path class="st12" d="M31.5,74.1l-1.9-16.5l22.8,9.5"/>
<path class="st13" d="M23.8,75l24.1,1.8l-16.4-2.7L11.2,65L23.8,75z"/>
<path class="st14" d="M51.2,43.8l16.4,7.8l0.1-22.3"/>
<path class="st15" d="M52.3,67.1l15.2-15.5l-16.3-7.8"/>
<path class="st16" d="M76.1,41.6L70.4,19l-2.7,10.3"/>
<path class="st10" d="M51.2,43.8l16.5-14.5l-21.5-9.8"/>
<path class="st4" d="M57.4,10.2L52,3.9L34.5,2L57.4,10.2z"/>
<path class="st4" d="M46.2,19.5l11.1-9.3L34.5,2L46.2,19.5z"/>
<path class="st3" d="M46.2,19.5l11.1-9.3l10.3,19.1"/>
<path class="st17" d="M52,3.9l5.3,6.3l10.3,19.1L70.4,19"/>
<path class="st18" d="M11.2,65l18.4-7.4l1.9,16.5"/>
<path class="st19" d="M52.2,67l15.4-2.6l-0.2-12.9"/>
<path class="st7" d="M67.5,51.5l8.6-9.9l-8.4-12.3"/>
<path class="st20" d="M67.4,51.5l0.3,12.9l8.4-22.8"/>
<path class="st21" d="M67.7,64.3v-2.8"/>
<path class="st22" d="M88.3,59.9v5c-1.2,0.8-2.5,1.2-4.2,1.2c-3.2,0-6-2.4-6-5.9s2.8-5.9,6-5.9c1.7,0,2.9,0.5,4,1.2l-0.9,1.6
	c-0.9-0.6-2-0.9-3.1-0.9c-2.6,0-4,1.8-4,4.1c0,2.4,1.8,4.1,4,4.1c1,0,1.6-0.2,2.3-0.5v-2.2h-2.6V60L88.3,59.9L88.3,59.9z"/>
<path class="st22" d="M96.7,65.9l-2.5-4.1c-0.2,0-0.4,0-0.6,0c-0.4,0-0.8,0-1.1,0v4.1h-1.9V54.7c0.9-0.1,1.8-0.2,3-0.2
	c3.2,0,4.6,1.6,4.6,3.6c0,1.5-0.8,2.7-2.2,3.3l3,4.6L96.7,65.9L96.7,65.9L96.7,65.9z M93.8,56.2c-0.5,0-0.9,0-1.3,0.1v3.9
	c0.4,0,0.7,0.1,1.1,0.1c1.7,0,2.5-0.8,2.5-2.1C96.1,57,95.3,56.2,93.8,56.2z"/>
<path class="st22" d="M100.3,65.9V54.5h6.9v1.8h-5v3h4.5V61h-4.4v3.1h5v1.8H100.3z"/>
<path class="st22" d="M109.5,65.9V54.5h6.9v1.8h-5v3h4.5V61h-4.5v3.1h5v1.8H109.5z"/>
<path class="st22" d="M127.9,66.1l-7.1-7.5v7.3h-1.9V54.4l0.3-0.1l7,7.4v-7.2h1.9V66L127.9,66.1z"/>
<path class="st22" d="M84.2,82c-3.6,0-6.1-2.5-6.1-5.9s2.6-5.9,6.1-5.9c1.4,0,2.7,0.5,3.7,1L87.1,73c-0.9-0.5-2-0.9-3-0.9
	c-2.5,0-4,1.7-4,4.1s1.6,4,4.1,4c1,0,2.2-0.4,3.1-0.9l0.6,1.6C86.9,81.5,85.6,82,84.2,82z"/>
<path class="st22" d="M89.7,81.8V70.5h1.9v9.6h5v1.8L89.7,81.8C89.7,81.9,89.7,81.8,89.7,81.8z"/>
<path class="st22" d="M98.2,81.8V70.5h1.9v11.4L98.2,81.8L98.2,81.8z"/>
<path class="st22" d="M112.1,81.8l-0.2-6.8l-3.6,5.4h-0.2l-3.6-5.4l-0.1,6.8h-1.9l0.5-11.5h0.3l5,7.5l4.9-7.5h0.3l0.5,11.5H112.1z"
	/>
<path class="st22" d="M123.8,81.8l-1.1-2.6h-4.5l-1.1,2.6h-2l5.2-11.5h0.3l5.2,11.5H123.8z M120.4,73.9l-1.6,3.8h3.2L120.4,73.9z"/>
<path class="st22" d="M130.8,72.2v9.6h-1.9v-9.6h-3.6v-1.8h9.1v1.8H130.8z"/>
<path class="st22" d="M136.1,81.8V70.5h6.9v1.8h-5v3h4.5V77H138v3.1h5v1.8L136.1,81.8L136.1,81.8z"/>
<path class="st22" d="M80.4,88.2v3.3h4.4v1.7h-4.4v4.6h-1.9V86.4h6.9v1.8C85.4,88.2,80.4,88.2,80.4,88.2z"/>
<path class="st22" d="M91.4,98c-2.8,0-4.5-1.6-4.5-4.5v-7h1.9v6.9c0,2,1,2.9,2.6,2.9s2.6-1,2.6-2.9v-6.9H96v7
	C96.1,96.3,94.3,98,91.4,98z"/>
<path class="st22" d="M107.5,98l-7.2-7.5v7.3h-1.9V86.3l0.3-0.1l7,7.4v-7.2h1.9L107.5,98L107.5,98z"/>
<path class="st22" d="M113.4,97.9c-1.2,0-2.1-0.1-3.3-0.2V86.5c1.1-0.1,2-0.2,3.2-0.2c4.5,0,6.7,2.6,6.7,5.7
	C120,95.2,117.9,97.9,113.4,97.9z M113.5,88c-0.6,0-1.1,0-1.5,0.1V96c0.5,0.1,0.9,0.1,1.6,0.1c2.9,0,4.2-1.7,4.2-4.2
	C117.9,89.6,116.4,88,113.5,88z"/>
</svg>
