<svg width="348" height="101" viewBox="0 0 348 101" fill="none" xmlns="http://www.w3.org/2000/svg">
<path d="M50.2415 41.8L28.8813 33.2L45.2274 17.5" fill="#41A655"/>
<path d="M28.5805 55.6L51.3446 65.1L50.2415 41.8" fill="#0B8E86"/>
<path d="M18.7528 16.1L45.2274 17.5L28.8813 33.2L18.7528 16.1Z" fill="#68AE45"/>
<path d="M0 45.2L9.32627 39.5L2.20621 22.9" fill="#6CB43F"/>
<path d="M2.20624 22.9L9.32629 39.5L18.7528 16" fill="#76B949"/>
<path d="M2.20624 22.9L18.7528 16L15.4435 6.39999" fill="#92C466"/>
<path d="M9.32629 39.5L18.7528 16.1L28.9817 33.2" fill="#3CA347"/>
<path d="M0 45.2L9.32627 39.4L10.2288 63" fill="#04823A"/>
<path d="M9.32629 39.5L28.8814 33.2L28.5805 55.6" fill="#41A655"/>
<path d="M9.32629 39.5L10.2288 63L28.5805 55.6" fill="#0A8E86"/>
<path d="M33.4943 0L18.7528 16.1L45.2274 17.5L33.4943 0Z" fill="#8CC054"/>
<path d="M33.4943 0L15.4435 6.4L18.7528 16.1L33.4943 0Z" fill="#76B949"/>
<path d="M28.5805 55.6L28.8814 33.2L50.2415 41.8" fill="#06A049"/>
<path d="M46.8319 74.8L30.4859 72.1L51.3447 65L66.6879 62.4L46.8319 74.8Z" fill="#035D74"/>
<path d="M30.4859 72.1L28.5805 55.6L51.3446 65.1" fill="#04788F"/>
<path d="M22.7641 73L46.8319 74.8L30.4859 72.1L10.2288 63L22.7641 73Z" fill="#016D83"/>
<path d="M50.2415 41.8L66.5876 49.6L66.6878 27.3" fill="#34958D"/>
<path d="M51.3446 65.1L66.5876 49.6L50.2415 41.8" fill="#307F7C"/>
<path d="M75.1116 39.6L69.3955 17L66.6879 27.3" fill="#016659"/>
<path d="M50.2415 41.8L66.6879 27.3L45.2274 17.5" fill="#06A049"/>
<path d="M56.3587 8.2L51.0438 1.9L33.4943 0L56.3587 8.2Z" fill="#76B949"/>
<path d="M45.2274 17.5L56.3587 8.2L33.4943 0L45.2274 17.5Z" fill="#76B949"/>
<path d="M45.2274 17.5L56.3588 8.20001L66.6879 27.3" fill="#6CB43F"/>
<path d="M51.0438 1.89999L56.3587 8.19999L66.6878 27.3L69.3955 17" fill="#019544"/>
<path d="M10.2288 63L28.5805 55.6L30.4859 72.1" fill="#037288"/>
<path d="M51.2443 65L66.6878 62.4L66.4873 49.5" fill="#027086"/>
<path d="M66.4873 49.5L75.1116 39.6L66.6879 27.3" fill="#04823A"/>
<path d="M66.387 49.5L66.6879 62.4L75.1116 39.6" fill="#02687F"/>
<path d="M66.6879 62.3V59.5" stroke="#04687E" stroke-width="0.0828336" stroke-miterlimit="10"/>
<path d="M87.3461 57.9V62.9C86.1427 63.7 84.839 64.1 83.1342 64.1C79.9252 64.1 77.1172 61.7 77.1172 58.2C77.1172 54.7 79.9252 52.3 83.1342 52.3C84.839 52.3 86.0424 52.8 87.1455 53.5L86.243 55.1C85.3404 54.5 84.2373 54.2 83.1342 54.2C80.5269 54.2 79.1229 56 79.1229 58.3C79.1229 60.7 80.928 62.4 83.1342 62.4C84.137 62.4 84.7387 62.2 85.4407 61.9V59.7H82.8333V58H87.3461V57.9Z" fill="#020203"/>
<path d="M95.6695 63.9L93.1624 59.8C92.9619 59.8 92.7613 59.8 92.5608 59.8C92.1596 59.8 91.7585 59.8 91.4576 59.8V63.9H89.5523V52.7C90.4548 52.6 91.3574 52.5 92.5608 52.5C95.7698 52.5 97.1737 54.1 97.1737 56.1C97.1737 57.6 96.3715 58.8 94.9675 59.4L97.976 64H95.6695V63.9ZM92.7613 54.2C92.2599 54.2 91.8588 54.2 91.4576 54.3V58.2C91.8588 58.2 92.1596 58.3 92.5608 58.3C94.2656 58.3 95.0678 57.5 95.0678 56.2C95.0678 55 94.2656 54.2 92.7613 54.2Z" fill="#020203"/>
<path d="M99.2797 63.9V52.5H106.199V54.3H101.185V57.3H105.698V59H101.285V62.1H106.299V63.9H99.2797Z" fill="#020203"/>
<path d="M108.506 63.9V52.5H115.425V54.3H110.411V57.3H114.924V59H110.411V62.1H115.425V63.9H108.506Z" fill="#020203"/>
<path d="M126.857 64.1L119.737 56.6V63.9H117.832V52.4L118.133 52.3L125.153 59.7V52.5H127.058V64L126.857 64.1Z" fill="#020203"/>
<path d="M83.2345 80C79.6243 80 77.1172 77.5 77.1172 74.1C77.1172 70.7 79.7246 68.2 83.2345 68.2C84.6384 68.2 85.9421 68.7 86.9449 69.2L86.1427 71C85.2401 70.5 84.137 70.1 83.1342 70.1C80.6271 70.1 79.1229 71.8 79.1229 74.2C79.1229 76.6 80.7274 78.2 83.2345 78.2C84.2373 78.2 85.4407 77.8 86.3432 77.3L86.9449 78.9C85.9421 79.5 84.6384 80 83.2345 80Z" fill="#020203"/>
<path d="M88.6497 79.8V68.5H90.5551V78.1H95.5692V79.9H88.6497V79.8Z" fill="#020203"/>
<path d="M97.1737 79.8V68.5H99.0791V79.9H97.1737V79.8Z" fill="#020203"/>
<path d="M111.113 79.8L110.912 73L107.302 78.4H107.102L103.492 73L103.391 79.8H101.486L101.987 68.3H102.288L107.302 75.8L112.216 68.3H112.517L113.018 79.8H111.113Z" fill="#020203"/>
<path d="M122.746 79.8L121.643 77.2H117.13L116.027 79.8H114.021L119.236 68.3H119.537L124.751 79.8H122.746ZM119.436 71.9L117.832 75.7H121.041L119.436 71.9Z" fill="#020203"/>
<path d="M129.766 70.2V79.8H127.86V70.2H124.25V68.4H133.376V70.2H129.766Z" fill="#020203"/>
<path d="M135.081 79.8V68.5H142V70.3H136.986V73.3H141.499V75H136.986V78.1H142V79.9H135.081V79.8Z" fill="#020203"/>
<path d="M79.4237 86.2V89.5H83.8362V91.2H79.4237V95.8H77.5184V84.4H84.4379V86.2H79.4237Z" fill="#020203"/>
<path d="M90.4548 96C87.6469 96 85.9421 94.4 85.9421 91.5V84.5H87.8474V91.4C87.8474 93.4 88.8503 94.3 90.4548 94.3C92.0593 94.3 93.0621 93.3 93.0621 91.4V84.5H94.9675V91.5C95.0678 94.3 93.2627 96 90.4548 96Z" fill="#020203"/>
<path d="M106.5 96L99.2797 88.5V95.8H97.3743V84.3L97.6751 84.2L104.695 91.6V84.4H106.6V95.9L106.5 96Z" fill="#020203"/>
<path d="M112.417 95.9C111.213 95.9 110.311 95.8 109.107 95.7V84.5C110.21 84.4 111.113 84.3 112.316 84.3C116.829 84.3 119.035 86.9 119.035 90C119.035 93.2 116.929 95.9 112.417 95.9ZM112.517 86C111.915 86 111.414 86 111.013 86.1V94C111.514 94.1 111.915 94.1 112.617 94.1C115.525 94.1 116.829 92.4 116.829 89.9C116.929 87.6 115.425 86 112.517 86Z" fill="#020203"/>
<line x1="158.5" y1="48.9131" x2="158.5" y2="100.913" stroke="#1C8F86"/>
<path d="M178.508 60.9492H174.912L174.229 63H172.048L175.753 53.0469H177.653L181.379 63H179.198L178.508 60.9492ZM175.466 59.2881H177.954L176.703 55.5625L175.466 59.2881ZM189.719 53.0469V59.6025C189.719 60.6917 189.377 61.5531 188.693 62.1865C188.014 62.82 187.085 63.1367 185.904 63.1367C184.742 63.1367 183.819 62.8291 183.136 62.2139C182.452 61.5986 182.104 60.7533 182.09 59.6777V53.0469H184.141V59.6162C184.141 60.2679 184.296 60.7441 184.605 61.0449C184.92 61.3411 185.353 61.4893 185.904 61.4893C187.057 61.4893 187.643 60.8831 187.661 59.6709V53.0469H189.719ZM198.893 54.708H195.844V63H193.793V54.708H190.785V53.0469H198.893V54.708ZM208.053 58.249C208.053 59.2288 207.88 60.0879 207.533 60.8262C207.187 61.5645 206.69 62.1341 206.043 62.5352C205.4 62.9362 204.662 63.1367 203.828 63.1367C203.003 63.1367 202.267 62.9385 201.62 62.542C200.973 62.1455 200.472 61.5804 200.116 60.8467C199.761 60.1084 199.581 59.2607 199.576 58.3037V57.8115C199.576 56.8317 199.752 55.9704 200.103 55.2275C200.458 54.4801 200.957 53.9082 201.6 53.5117C202.247 53.1107 202.985 52.9102 203.814 52.9102C204.644 52.9102 205.38 53.1107 206.022 53.5117C206.67 53.9082 207.169 54.4801 207.52 55.2275C207.875 55.9704 208.053 56.8294 208.053 57.8047V58.249ZM205.975 57.7979C205.975 56.7542 205.788 55.9613 205.414 55.4189C205.04 54.8766 204.507 54.6055 203.814 54.6055C203.126 54.6055 202.595 54.8743 202.222 55.4121C201.848 55.9453 201.659 56.7292 201.654 57.7637V58.249C201.654 59.2653 201.841 60.0537 202.215 60.6143C202.589 61.1748 203.126 61.4551 203.828 61.4551C204.516 61.4551 205.045 61.1862 205.414 60.6484C205.783 60.1061 205.97 59.3177 205.975 58.2832V57.7979ZM213.228 59.3564H211.594V63H209.543V53.0469H213.241C214.417 53.0469 215.324 53.3089 215.962 53.833C216.6 54.3571 216.919 55.0977 216.919 56.0547C216.919 56.7337 216.771 57.3011 216.475 57.7568C216.183 58.208 215.739 58.568 215.142 58.8369L217.295 62.9043V63H215.094L213.228 59.3564ZM211.594 57.6953H213.248C213.763 57.6953 214.162 57.5654 214.444 57.3057C214.727 57.0413 214.868 56.679 214.868 56.2188C214.868 55.7493 214.734 55.3802 214.465 55.1113C214.201 54.8424 213.793 54.708 213.241 54.708H211.594V57.6953ZM220.665 63H218.614V53.0469H220.665V63ZM229.859 54.708H226.811V63H224.76V54.708H221.752V53.0469H229.859V54.708ZM237.023 58.6865H233.086V61.3525H237.707V63H231.035V53.0469H237.693V54.708H233.086V57.0801H237.023V58.6865ZM234.884 50.3604H237.037L235.144 52.4795H233.537L234.884 50.3604ZM250.49 63H248.439L244.447 56.4512V63H242.396V53.0469H244.447L248.446 59.6094V53.0469H250.49V63ZM258.023 60.9492H254.428L253.744 63H251.563L255.269 53.0469H257.169L260.895 63H258.714L258.023 60.9492ZM254.981 59.2881H257.47L256.219 55.5625L254.981 59.2881ZM268.496 54.708H265.447V63H263.396V54.708H260.389V53.0469H268.496V54.708ZM271.853 63H269.802V53.0469H271.853V63ZM281.936 58.249C281.936 59.2288 281.762 60.0879 281.416 60.8262C281.07 61.5645 280.573 62.1341 279.926 62.5352C279.283 62.9362 278.545 63.1367 277.711 63.1367C276.886 63.1367 276.15 62.9385 275.503 62.542C274.856 62.1455 274.354 61.5804 273.999 60.8467C273.644 60.1084 273.464 59.2607 273.459 58.3037V57.8115C273.459 56.8317 273.634 55.9704 273.985 55.2275C274.341 54.4801 274.84 53.9082 275.482 53.5117C276.13 53.1107 276.868 52.9102 277.697 52.9102C278.527 52.9102 279.263 53.1107 279.905 53.5117C280.552 53.9082 281.051 54.4801 281.402 55.2275C281.758 55.9704 281.936 56.8294 281.936 57.8047V58.249ZM279.857 57.7979C279.857 56.7542 279.671 55.9613 279.297 55.4189C278.923 54.8766 278.39 54.6055 277.697 54.6055C277.009 54.6055 276.478 54.8743 276.104 55.4121C275.731 55.9453 275.542 56.7292 275.537 57.7637V58.249C275.537 59.2653 275.724 60.0537 276.098 60.6143C276.471 61.1748 277.009 61.4551 277.711 61.4551C278.399 61.4551 278.928 61.1862 279.297 60.6484C279.666 60.1061 279.853 59.3177 279.857 58.2832V57.7979ZM291.52 63H289.469L285.477 56.4512V63H283.426V53.0469H285.477L289.476 59.6094V53.0469H291.52V63ZM299.053 60.9492H295.457L294.773 63H292.593L296.298 53.0469H298.198L301.924 63H299.743L299.053 60.9492ZM296.011 59.2881H298.499L297.248 55.5625L296.011 59.2881ZM304.904 61.3525H309.259V63H302.854V53.0469H304.904V61.3525ZM316.43 58.6865H312.492V61.3525H317.113V63H310.441V53.0469H317.1V54.708H312.492V57.0801H316.43V58.6865ZM172.889 79V69.0469H175.951C176.826 69.0469 177.608 69.2451 178.296 69.6416C178.989 70.0335 179.529 70.5941 179.916 71.3232C180.303 72.0479 180.497 72.8727 180.497 73.7979V74.2559C180.497 75.181 180.306 76.0036 179.923 76.7236C179.545 77.4437 179.009 78.002 178.316 78.3984C177.624 78.7949 176.842 78.9954 175.972 79H172.889ZM174.939 70.708V77.3525H175.931C176.733 77.3525 177.346 77.0905 177.77 76.5664C178.193 76.0423 178.41 75.2926 178.419 74.3174V73.791C178.419 72.7793 178.209 72.0137 177.79 71.4941C177.371 70.9701 176.758 70.708 175.951 70.708H174.939ZM187.982 74.6865H184.045V77.3525H188.666V79H181.994V69.0469H188.652V70.708H184.045V73.0801H187.982V74.6865ZM185.843 66.3604H187.996L186.103 68.4795H184.496L185.843 66.3604ZM195.03 76.3887C195.03 76.0013 194.894 75.7051 194.62 75.5C194.347 75.2904 193.854 75.0716 193.144 74.8438C192.433 74.6113 191.87 74.3835 191.455 74.1602C190.325 73.5495 189.76 72.7269 189.76 71.6924C189.76 71.1546 189.91 70.6761 190.211 70.2568C190.516 69.833 190.951 69.5026 191.517 69.2656C192.086 69.0286 192.724 68.9102 193.431 68.9102C194.142 68.9102 194.775 69.04 195.331 69.2998C195.887 69.555 196.318 69.9173 196.623 70.3867C196.933 70.8561 197.088 71.3893 197.088 71.9863H195.037C195.037 71.5306 194.894 71.1774 194.606 70.9268C194.319 70.6715 193.916 70.5439 193.396 70.5439C192.895 70.5439 192.506 70.651 192.228 70.8652C191.95 71.0749 191.811 71.3529 191.811 71.6992C191.811 72.0228 191.972 72.2939 192.296 72.5127C192.624 72.7314 193.105 72.9365 193.738 73.1279C194.905 73.4788 195.755 73.9141 196.288 74.4336C196.821 74.9531 197.088 75.6003 197.088 76.375C197.088 77.2363 196.762 77.9131 196.11 78.4053C195.459 78.8929 194.581 79.1367 193.479 79.1367C192.713 79.1367 192.016 78.9977 191.387 78.7197C190.758 78.4372 190.277 78.0521 189.944 77.5645C189.616 77.0768 189.452 76.5117 189.452 75.8691H191.51C191.51 76.9674 192.166 77.5166 193.479 77.5166C193.966 77.5166 194.347 77.4186 194.62 77.2227C194.894 77.0221 195.03 76.7441 195.03 76.3887ZM200.663 79H198.612V69.0469H200.663V79ZM210.445 77.7422C210.076 78.1842 209.554 78.5283 208.88 78.7744C208.205 79.016 207.458 79.1367 206.638 79.1367C205.776 79.1367 205.02 78.9499 204.368 78.5762C203.721 78.1979 203.22 77.651 202.864 76.9355C202.513 76.2201 202.333 75.3792 202.324 74.4131V73.7363C202.324 72.7428 202.491 71.8838 202.823 71.1592C203.16 70.43 203.644 69.874 204.272 69.4912C204.906 69.1038 205.646 68.9102 206.494 68.9102C207.674 68.9102 208.597 69.1927 209.263 69.7578C209.928 70.3184 210.322 71.1364 210.445 72.2119H208.449C208.358 71.6423 208.155 71.2253 207.841 70.9609C207.531 70.6966 207.103 70.5645 206.556 70.5645C205.858 70.5645 205.327 70.8265 204.963 71.3506C204.598 71.8747 204.414 72.654 204.409 73.6885V74.3242C204.409 75.3678 204.607 76.1562 205.004 76.6895C205.4 77.2227 205.981 77.4893 206.747 77.4893C207.517 77.4893 208.066 77.3252 208.395 76.9971V75.2812H206.528V73.7705H210.445V77.7422ZM220.207 79H218.156L214.164 72.4512V79H212.113V69.0469H214.164L218.163 75.6094V69.0469H220.207V79ZM227.986 74.6865H224.049V77.3525H228.67V79H221.998V69.0469H228.656V70.708H224.049V73.0801H227.986V74.6865ZM225.847 66.3604H228L226.106 68.4795H224.5L225.847 66.3604ZM235.861 74.6865H231.924V77.3525H236.545V79H229.873V69.0469H236.531V70.708H231.924V73.0801H235.861V74.6865ZM175.568 85.0469L178.125 92.2656L180.668 85.0469H183.361V95H181.304V92.2793L181.509 87.583L178.822 95H177.414L174.734 87.5898L174.939 92.2793V95H172.889V85.0469H175.568ZM190.895 92.9492H187.299L186.615 95H184.435L188.14 85.0469H190.04L193.766 95H191.585L190.895 92.9492ZM187.853 91.2881H190.341L189.09 87.5625L187.853 91.2881ZM194.695 95V85.0469H197.758C198.633 85.0469 199.414 85.2451 200.103 85.6416C200.795 86.0335 201.335 86.5941 201.723 87.3232C202.11 88.0479 202.304 88.8727 202.304 89.7979V90.2559C202.304 91.181 202.112 92.0036 201.729 92.7236C201.351 93.4437 200.816 94.002 200.123 94.3984C199.43 94.7949 198.649 94.9954 197.778 95H194.695ZM196.746 86.708V93.3525H197.737C198.539 93.3525 199.152 93.0905 199.576 92.5664C200 92.0423 200.216 91.2926 200.226 90.3174V89.791C200.226 88.7793 200.016 88.0137 199.597 87.4941C199.177 86.9701 198.564 86.708 197.758 86.708H196.746ZM209.27 92.9492H205.674L204.99 95H202.81L206.515 85.0469H208.415L212.141 95H209.96L209.27 92.9492ZM206.228 91.2881H208.716L207.465 87.5625L206.228 91.2881ZM220.795 93.7422C220.426 94.1842 219.904 94.5283 219.229 94.7744C218.555 95.016 217.808 95.1367 216.987 95.1367C216.126 95.1367 215.369 94.9499 214.718 94.5762C214.071 94.1979 213.569 93.651 213.214 92.9355C212.863 92.2201 212.683 91.3792 212.674 90.4131V89.7363C212.674 88.7428 212.84 87.8838 213.173 87.1592C213.51 86.43 213.993 85.874 214.622 85.4912C215.256 85.1038 215.996 84.9102 216.844 84.9102C218.024 84.9102 218.947 85.1927 219.612 85.7578C220.278 86.3184 220.672 87.1364 220.795 88.2119H218.799C218.708 87.6423 218.505 87.2253 218.19 86.9609C217.881 86.6966 217.452 86.5645 216.905 86.5645C216.208 86.5645 215.677 86.8265 215.312 87.3506C214.948 87.8747 214.763 88.654 214.759 89.6885V90.3242C214.759 91.3678 214.957 92.1562 215.354 92.6895C215.75 93.2227 216.331 93.4893 217.097 93.4893C217.867 93.4893 218.416 93.3252 218.744 92.9971V91.2812H216.878V89.7705H220.795V93.7422ZM228.082 92.9492H224.486L223.803 95H221.622L225.327 85.0469H227.228L230.953 95H228.772L228.082 92.9492ZM225.04 91.2881H227.528L226.277 87.5625L225.04 91.2881ZM237.044 92.3887C237.044 92.0013 236.907 91.7051 236.634 91.5C236.36 91.2904 235.868 91.0716 235.157 90.8438C234.446 90.6113 233.883 90.3835 233.469 90.1602C232.339 89.5495 231.773 88.7269 231.773 87.6924C231.773 87.1546 231.924 86.6761 232.225 86.2568C232.53 85.833 232.965 85.5026 233.53 85.2656C234.1 85.0286 234.738 84.9102 235.444 84.9102C236.155 84.9102 236.789 85.04 237.345 85.2998C237.901 85.555 238.331 85.9173 238.637 86.3867C238.947 86.8561 239.102 87.3893 239.102 87.9863H237.051C237.051 87.5306 236.907 87.1774 236.62 86.9268C236.333 86.6715 235.93 86.5439 235.41 86.5439C234.909 86.5439 234.519 86.651 234.241 86.8652C233.963 87.0749 233.824 87.3529 233.824 87.6992C233.824 88.0228 233.986 88.2939 234.31 88.5127C234.638 88.7314 235.118 88.9365 235.752 89.1279C236.919 89.4788 237.769 89.9141 238.302 90.4336C238.835 90.9531 239.102 91.6003 239.102 92.375C239.102 93.2363 238.776 93.9131 238.124 94.4053C237.472 94.8929 236.595 95.1367 235.492 95.1367C234.727 95.1367 234.029 94.9977 233.4 94.7197C232.771 94.4372 232.291 94.0521 231.958 93.5645C231.63 93.0768 231.466 92.5117 231.466 91.8691H233.523C233.523 92.9674 234.18 93.5166 235.492 93.5166C235.98 93.5166 236.36 93.4186 236.634 93.2227C236.907 93.0221 237.044 92.7441 237.044 92.3887ZM248.31 91.6846C248.232 92.7555 247.836 93.5986 247.12 94.2139C246.409 94.8291 245.47 95.1367 244.304 95.1367C243.028 95.1367 242.023 94.7083 241.289 93.8516C240.56 92.9902 240.195 91.8099 240.195 90.3105V89.7021C240.195 88.7451 240.364 87.902 240.701 87.1729C241.038 86.4437 241.519 85.8854 242.144 85.498C242.772 85.1061 243.502 84.9102 244.331 84.9102C245.479 84.9102 246.405 85.2178 247.106 85.833C247.808 86.4482 248.214 87.3118 248.323 88.4238H246.272C246.222 87.7812 246.042 87.3164 245.732 87.0293C245.427 86.7376 244.96 86.5918 244.331 86.5918C243.647 86.5918 243.135 86.8379 242.793 87.3301C242.456 87.8177 242.283 88.5765 242.273 89.6064V90.3584C242.273 91.4339 242.435 92.2201 242.759 92.7168C243.087 93.2135 243.602 93.4619 244.304 93.4619C244.937 93.4619 245.409 93.3184 245.719 93.0312C246.033 92.7396 246.213 92.2907 246.259 91.6846H248.31ZM255.275 92.9492H251.68L250.996 95H248.815L252.521 85.0469H254.421L258.146 95H255.966L255.275 92.9492ZM252.233 91.2881H254.722L253.471 87.5625L252.233 91.2881ZM262.761 91.3564H261.127V95H259.076V85.0469H262.774C263.95 85.0469 264.857 85.3089 265.495 85.833C266.133 86.3571 266.452 87.0977 266.452 88.0547C266.452 88.7337 266.304 89.3011 266.008 89.7568C265.716 90.208 265.272 90.568 264.675 90.8369L266.828 94.9043V95H264.627L262.761 91.3564ZM261.127 89.6953H262.781C263.296 89.6953 263.695 89.5654 263.978 89.3057C264.26 89.0413 264.401 88.679 264.401 88.2188C264.401 87.7493 264.267 87.3802 263.998 87.1113C263.734 86.8424 263.326 86.708 262.774 86.708H261.127V89.6953Z" fill="#1C8F86"/>
</svg>
