<svg width="20" height="20" viewBox="0 0 20 20" fill="none" xmlns="http://www.w3.org/2000/svg">
<path d="M19 19L8.5 8.5" stroke="black" stroke-width="2" stroke-miterlimit="10"/>
<path d="M13.8 3.19999C10.9 0.299994 6.10002 0.299994 3.20002 3.19999C0.300025 6.09999 0.300025 10.9 3.20002 13.8C6.10002 16.7 10.9 16.7 13.8 13.8C16.8 10.9 16.8 6.09999 13.8 3.19999Z" fill="white"/>
<path d="M14.5 2.49999C17.8 5.79999 17.8 11.2 14.5 14.5C11.2 17.8 5.80002 17.8 2.50002 14.5C-0.799976 11.2 -0.799976 5.79999 2.50002 2.49999C5.80002 -0.800006 11.2 -0.800006 14.5 2.49999C17.9 5.79999 11.2 -0.800006 14.5 2.49999ZM3.90002 13.1C6.40002 15.6 10.6 15.6 13.1 13.1C15.6 10.6 15.6 6.39999 13.1 3.89999C10.6 1.39999 6.40002 1.39999 3.90002 3.89999C1.40002 6.39999 1.40002 10.6 3.90002 13.1C6.40002 15.7 1.40002 10.6 3.90002 13.1Z" fill="black"/>
</svg>
